# xmcd
#
# Track frame offsets: 
#        150
#        20516
#        41880
#        75266
#        111597
#        134722
#        155770
#        173426
#        189496
#        214359
#        236977
#        257660
#        280766
#        297453
#        317275
#        337873
#
# Disc length: 4773 seconds
#
# Revision: 0
# Processed by: cddbd v1.5.2PL0 Copyright (c) Steve Scherf et al.
# Submitted via: ExactAudioCopy v0.95b4
#
DISCID=ec12a310
DTITLE=Marla Glen(Alabamahalle1995)(in concert[live])('Friends'-2003)(
DTITLE='Our World'-1997) - Marla Glen(Alabamahalle1995)(in concert[liv
DTITLE=e])('Friends'-2003)('Our World'-1997)
DYEAR=1900
DGENRE=
TTITLE0=Marla Glen (Alabamahalle1995) - Ain't That A Shame
TTITLE1=Marla Glen (Alabamahalle1995) - Also Love You
TTITLE2=Marla Glen (Alabamahalle1995) - Believer
TTITLE3=Marla Glen(Marla Glen in concert[live]) - Believer
TTITLE4=Marla Glen (Alabamahalle1995) - Break Free
TTITLE5=Marla Glen (Alabamahalle1995) - Love and Respect
TTITLE6=Marla Glen (Alabamahalle1995) - What About Our Children
TTITLE7=Marla Glen(Marla Glen in concert[live]) - What About Our Child
TTITLE7=ren
TTITLE8=Marla Glen (Alabamahalle1995) - You Got Me
TTITLE9=Marla Glen(Marla Glen in concert[live]) - Early Power
TTITLE10=Marla Glen(Marla Glen in concert[live]) - The Cost Of Freedom
TTITLE11=Marla Glen(Marla Glen in concert[live]) - Travel
TTITLE12=Marla Glen(07'Friends'2003) - Same Way
TTITLE13=Marla Glen(01'Friends'2003) - Friends
TTITLE14=Marla Glen(01'Our World'1997) - Hot Love
TTITLE15=Marla Glen(12'Our World'1997) - Talk About Love
EXTD=
EXTT0=
EXTT1=
EXTT2=
EXTT3=
EXTT4=
EXTT5=
EXTT6=
EXTT7=
EXTT8=
EXTT9=
EXTT10=
EXTT11=
EXTT12=
EXTT13=
EXTT14=
EXTT15=
PLAYORDER=
